<?xml version="1.0" encoding="UTF-8" standalone="no"?>
<!-- Created with Inkscape (http://www.inkscape.org/) -->

<svg
   xmlns:dc="http://purl.org/dc/elements/1.1/"
   xmlns:cc="http://creativecommons.org/ns#"
   xmlns:rdf="http://www.w3.org/1999/02/22-rdf-syntax-ns#"
   xmlns:svg="http://www.w3.org/2000/svg"
   xmlns="http://www.w3.org/2000/svg"
   xmlns:xlink="http://www.w3.org/1999/xlink"
   xmlns:sodipodi="http://sodipodi.sourceforge.net/DTD/sodipodi-0.dtd"
   xmlns:inkscape="http://www.inkscape.org/namespaces/inkscape"
   width="293.04395mm"
   height="290.34396mm"
   viewBox="0 0 293.04395 290.34396"
   version="1.1"
   id="svg6371"
   inkscape:export-filename="/home/jacques/teemo/exodus-assoc/logo/logo_text-goodies.png"
   inkscape:export-xdpi="96"
   inkscape:export-ydpi="96"
   inkscape:version="0.91 r13725"
   sodipodi:docname="logo_text-goodies.svg">
  <defs
     id="defs6365">
    <path
       inkscape:export-ydpi="96"
       inkscape:export-xdpi="96"
       inkscape:connector-curvature="0"
       id="path5099"
       d="M -261.07398,197.33632 A 159.33163,159.33163 0 0 1 -90.186284,344.20545 159.33163,159.33163 0 0 1 -237.05542,515.09313 159.33163,159.33163 0 0 1 -407.94311,368.22401 159.33163,159.33163 0 0 1 -261.07398,197.33632 Z"
       style="fill:none;stroke:none;stroke-width:0.23647717" />
  </defs>
  <sodipodi:namedview
     id="base"
     pagecolor="#ffffff"
     bordercolor="#666666"
     borderopacity="1.0"
     inkscape:pageopacity="0.0"
     inkscape:pageshadow="2"
     inkscape:zoom="0.35"
     inkscape:cx="-253.31112"
     inkscape:cy="172.96719"
     inkscape:document-units="mm"
     inkscape:current-layer="layer1"
     showgrid="false"
     inkscape:window-width="1920"
     inkscape:window-height="1134"
     inkscape:window-x="0"
     inkscape:window-y="0"
     inkscape:window-maximized="1" />
  <metadata
     id="metadata6368">
    <rdf:RDF>
      <cc:Work
         rdf:about="">
        <dc:format>image/svg+xml</dc:format>
        <dc:type
           rdf:resource="http://purl.org/dc/dcmitype/StillImage" />
        <dc:title></dc:title>
      </cc:Work>
    </rdf:RDF>
  </metadata>
  <g
     inkscape:label="Layer 1"
     inkscape:groupmode="layer"
     id="layer1"
     transform="translate(-37.161781,95.746382)">
    <ellipse
       style="fill:#684971;fill-opacity:1;stroke:none;stroke-width:0.22726357"
       id="path5128"
       cx="183.68376"
       cy="49.425591"
       inkscape:export-xdpi="96"
       inkscape:export-ydpi="96"
       rx="146.52197"
       ry="145.17198" />
    <path
       style="fill:none;stroke:none;stroke-width:0.23647717"
       d="M 174.35526,-72.849982 A 123.76471,122.62439 0 0 1 307.09642,40.18305 123.76471,122.62439 0 0 1 193.01226,171.70117 123.76471,122.62439 0 0 1 60.271094,58.66815 123.76471,122.62439 0 0 1 174.35526,-72.849982 Z"
       id="path6353"
       inkscape:connector-curvature="0"
       inkscape:export-xdpi="96"
       inkscape:export-ydpi="96" />
    <text
       xml:space="preserve"
       style="font-style:normal;font-variant:normal;font-weight:normal;font-stretch:normal;font-size:25.39999962px;line-height:125%;font-family:sans-serif;-inkscape-font-specification:'sans-serif, Normal';text-align:start;letter-spacing:0px;word-spacing:0px;writing-mode:lr-tb;text-anchor:start;fill:#808080;fill-opacity:1;stroke:none;stroke-width:0.26458332"
       id="text5104"
       transform="matrix(-0.5280891,-0.56869918,0.56735242,-0.52106002,-149.32195,93.752023)"
       x="-6.7442636"
       y="173.23721"
       sodipodi:linespacing="125%"><textPath
         xlink:href="#path5099"
         id="textPath5125"
         style="font-style:normal;font-variant:normal;font-weight:500;font-stretch:normal;font-size:28.22222137px;line-height:125%;font-family:Lato;-inkscape-font-specification:'Lato, Medium';text-align:start;writing-mode:lr-tb;text-anchor:start;fill:#ffffff">Exodus because privacy is not an adjustment variable. </textPath></text>
    <ellipse
       ry="141.38663"
       rx="141.38664"
       cy="49.425594"
       cx="183.68376"
       id="path5644"
       style="fill:none;fill-opacity:1;stroke:none;stroke-width:1.47774827" />
    <path
       style="font-style:normal;font-weight:normal;font-size:2050.27807617px;font-family:'Times New Roman';fill:#ffffff;fill-opacity:1;stroke:none;stroke-width:0.2500065px;stroke-linecap:butt;stroke-linejoin:miter;stroke-opacity:1"
       d="M 157.92382,44.128441 C 132.39066,35.139464 119.6241,21.527426 119.62414,3.2922973 c -4e-5,-14.3823933 6.77207,-25.8755823 20.31633,-34.4795813 13.54416,-8.603675 30.361,-12.90559 50.4506,-12.905767 18.27485,1.77e-4 32.79113,2.985838 43.54886,8.956984 10.75746,5.971491 16.13628,13.130657 16.13641,21.477503 -1.3e-4,4.366286 -1.68506,8.1866358 -5.05477,11.461096 -3.36999,3.2747296 -7.2583,4.9120289 -11.66487,4.9118904 -7.25828,1.385e-4 -13.22033,-5.0080618 -17.88616,-15.0246164 -6.48059,-13.86872 -16.20131,-20.80315 -29.16218,-20.803327 -10.23926,1.77e-4 -18.66389,3.33897 -25.27391,10.016409 -6.61015,6.677769 -9.9152,15.9878922 -9.91513,27.9303987 -7e-5,23.5001503 12.24804,35.2501603 36.74435,35.2500683 2.5921,9.2e-5 5.57311,-0.256729 8.94308,-0.770487 5.83233,-0.770395 10.36865,-1.15565 13.60901,-1.155742 7.90608,9.2e-5 11.85917,2.247367 11.8593,6.741809 -1.3e-4,5.008293 -4.01803,7.512405 -12.05372,7.51232 -2.8515,8.5e-5 -7.12863,-0.449372 -12.83135,-1.348369 -4.27722,-0.770403 -7.58227,-1.155658 -9.91514,-1.155735 -25.92203,7.7e-5 -38.883,13.098464 -38.88293,39.295162 -7e-5,12.713167 3.43459,22.954317 10.30398,30.723427 6.86923,7.76915 16.46035,11.65372 28.77336,11.65371 15.42345,1e-5 25.66261,-7.89754 30.7175,-23.69267 2.59208,-8.346982 5.4759,-14.12567 8.65144,-17.336105 3.17532,-3.210336 7.42003,-4.815535 12.73418,-4.815581 4.40658,4.6e-5 8.39208,1.573137 11.9565,4.719271 3.5641,3.146226 5.34625,7.159204 5.3464,12.038965 -1.5e-4,11.68584 -6.61025,21.3491 -19.8303,28.98981 -13.22033,7.64073 -29.2271,11.46109 -48.0204,11.46109 -20.60804,0 -38.91539,-4.87979 -54.92215,-14.63938 -16.00682,-9.75956 -24.01022,-22.79373 -24.01019,-39.102537 -3e-5,-20.41801 15.87716,-35.442611 47.63158,-45.073872 z"
       id="text2175"
       inkscape:connector-curvature="0"
       sodipodi:nodetypes="cccccccccccccccccccccsccccccsccc" />
  </g>
</svg>
