<?xml version="1.0" encoding="UTF-8" standalone="no"?>
<!-- Created with Inkscape (http://www.inkscape.org/) -->

<svg
   xmlns:dc="http://purl.org/dc/elements/1.1/"
   xmlns:cc="http://creativecommons.org/ns#"
   xmlns:rdf="http://www.w3.org/1999/02/22-rdf-syntax-ns#"
   xmlns:svg="http://www.w3.org/2000/svg"
   xmlns="http://www.w3.org/2000/svg"
   xmlns:sodipodi="http://sodipodi.sourceforge.net/DTD/sodipodi-0.dtd"
   xmlns:inkscape="http://www.inkscape.org/namespaces/inkscape"
   width="640"
   height="480"
   viewBox="0 0 169.33333 127.00001"
   version="1.1"
   id="svg8"
   inkscape:version="0.92.2 (5c3e80d, 2017-08-06)"
   sodipodi:docname="reunion-publique.svg"
   inkscape:export-filename="/Users/baltazar/Code/exodus-privacy/anim-com/graphisme/reunion-publique.png"
   inkscape:export-xdpi="96"
   inkscape:export-ydpi="96">
  <defs
     id="defs2" />
  <sodipodi:namedview
     id="base"
     pagecolor="#ffffff"
     bordercolor="#666666"
     borderopacity="1.0"
     inkscape:pageopacity="0.0"
     inkscape:pageshadow="2"
     inkscape:zoom="0.98994949"
     inkscape:cx="-56.024006"
     inkscape:cy="289.25135"
     inkscape:document-units="mm"
     inkscape:current-layer="layer3"
     showgrid="false"
     units="px"
     showguides="true"
     inkscape:guide-bbox="true"
     inkscape:snap-global="false"
     inkscape:window-width="1920"
     inkscape:window-height="1032"
     inkscape:window-x="0"
     inkscape:window-y="22"
     inkscape:window-maximized="0">
    <sodipodi:guide
       position="84.666669,63.500002"
       orientation="0,1"
       id="guide4504"
       inkscape:locked="false"
       inkscape:label=""
       inkscape:color="rgb(0,0,255)" />
    <sodipodi:guide
       position="84.666665,63.500005"
       orientation="1,0"
       id="guide4567"
       inkscape:locked="false" />
  </sodipodi:namedview>
  <metadata
     id="metadata5">
    <rdf:RDF>
      <cc:Work
         rdf:about="">
        <dc:format>image/svg+xml</dc:format>
        <dc:type
           rdf:resource="http://purl.org/dc/dcmitype/StillImage" />
        <dc:title />
      </cc:Work>
    </rdf:RDF>
  </metadata>
  <g
     inkscape:groupmode="layer"
     id="layer3"
     inkscape:label="Fond">
    <rect
       style="fill:#684971;fill-opacity:1;fill-rule:nonzero;stroke:#ffffff;stroke-width:0.24128245;stroke-miterlimit:4;stroke-dasharray:none;stroke-opacity:0"
       id="rect4588"
       width="170.80894"
       height="129.1149"
       x="-0.011858014"
       y="-1.033963" />
    <text
       xml:space="preserve"
       style="font-style:normal;font-weight:normal;font-size:10.58333302px;line-height:125%;font-family:sans-serif;letter-spacing:0px;word-spacing:0px;fill:#fefefe;fill-opacity:1;stroke:none;stroke-width:0.26458332px;stroke-linecap:butt;stroke-linejoin:miter;stroke-opacity:1"
       x="85.013199"
       y="92.665947"
       id="text4592"><tspan
         sodipodi:role="line"
         id="tspan4590"
         x="85.013199"
         y="92.665947"
         style="font-style:normal;font-variant:normal;font-weight:normal;font-stretch:normal;font-size:10.58333302px;font-family:lato;-inkscape-font-specification:'lato, Normal';font-variant-ligatures:normal;font-variant-caps:normal;font-variant-numeric:normal;font-feature-settings:normal;text-align:center;writing-mode:lr-tb;text-anchor:middle;fill:#fefefe;fill-opacity:1;stroke-width:0.26458332px">08/04/2018 à 18h</tspan><tspan
         sodipodi:role="line"
         x="85.013199"
         y="106.37384"
         style="font-style:normal;font-variant:normal;font-weight:normal;font-stretch:normal;font-size:10.58333302px;font-family:lato;-inkscape-font-specification:'lato, Normal';font-variant-ligatures:normal;font-variant-caps:normal;font-variant-numeric:normal;font-feature-settings:normal;text-align:center;writing-mode:lr-tb;text-anchor:middle;fill:#fefefe;fill-opacity:1;stroke-width:0.26458332px"
         id="tspan4594">Réunion publique</tspan></text>
    <ellipse
       style="fill:#fefefe;fill-opacity:1;fill-rule:nonzero;stroke:none;stroke-width:1.35211265;stroke-miterlimit:4;stroke-dasharray:none;stroke-opacity:0"
       id="path4596"
       cx="84.560493"
       cy="47.364426"
       rx="25.296495"
       ry="25.657875" />
  </g>
  <g
     inkscape:label="Calque 1"
     inkscape:groupmode="layer"
     id="layer1"
     transform="translate(0,-169.99998)">
    <g
       style="display:inline;stroke:none;stroke-width:1;stroke-miterlimit:4;stroke-dasharray:none;stroke-opacity:0"
       transform="matrix(0.98755038,0,0,1,-12.820225,167.76667)"
       id="layer1-3"
       inkscape:label="Layer 1">
      <ellipse
         ry="24.59757"
         rx="24.826311"
         inkscape:export-ydpi="96"
         inkscape:export-xdpi="96"
         cy="49.49646"
         cx="98.666534"
         id="path5128"
         style="fill:#684971;fill-opacity:1;stroke:none;stroke-width:1;stroke-miterlimit:4;stroke-dasharray:none;stroke-opacity:0" />
      <path
         inkscape:export-ydpi="96"
         inkscape:export-xdpi="96"
         inkscape:connector-curvature="0"
         id="path5099"
         d="M 97.085937,28.778397 A 20.970378,20.777165 0 0 1 119.57726,47.930427 20.970378,20.777165 0 0 1 100.24713,70.214524 20.970378,20.777165 0 0 1 77.755806,51.062495 20.970378,20.777165 0 0 1 97.085937,28.778397 Z"
         style="fill:none;stroke:none;stroke-width:1;stroke-miterlimit:4;stroke-dasharray:none;stroke-opacity:0" />
      <ellipse
         style="fill:none;fill-opacity:1;stroke:none;stroke-width:1;stroke-miterlimit:4;stroke-dasharray:none;stroke-opacity:0"
         id="path5644"
         cx="98.666534"
         cy="49.49646"
         rx="23.956194"
         ry="23.95619" />
      <path
         sodipodi:nodetypes="cccccccccccccccccccccsccccccsccc"
         inkscape:connector-curvature="0"
         id="text2175"
         d="m 94.301833,48.598924 c -4.326274,-1.523069 -6.489407,-3.829458 -6.4894,-6.919172 -7e-6,-2.436916 1.147443,-4.384293 3.442347,-5.842133 2.294889,-1.457785 5.144291,-2.18669 8.548221,-2.18672 3.096449,3e-5 5.556049,0.505913 7.378809,1.517648 1.82272,1.011795 2.73409,2.224826 2.73411,3.639094 -2e-5,0.739812 -0.28551,1.387123 -0.85647,1.941939 -0.571,0.554862 -1.22982,0.832282 -1.97646,0.832258 -1.22983,2.4e-5 -2.24002,-0.848553 -3.03059,-2.545733 -1.09805,-2.34988 -2.74511,-3.524832 -4.941163,-3.524862 -1.734914,3e-5 -3.162362,0.565746 -4.282346,1.697154 -1.120007,1.131465 -1.680006,2.708948 -1.679996,4.732456 -10e-6,3.981806 2.075278,5.972698 6.22587,5.972682 0.439199,1.6e-5 0.944295,-0.0435 1.515295,-0.130549 0.98821,-0.130534 1.75684,-0.195811 2.30587,-0.195826 1.33959,1.5e-5 2.00939,0.380788 2.00941,1.142315 -2e-5,0.848592 -0.6808,1.272883 -2.04235,1.272868 -0.48315,1.5e-5 -1.20786,-0.07614 -2.17411,-0.228464 -0.72472,-0.130535 -1.28472,-0.195812 -1.679996,-0.195825 -4.392162,1.3e-5 -6.588235,2.219371 -6.588225,6.658073 -1e-5,2.154087 0.581949,3.88932 1.745881,5.205699 1.163905,1.316385 2.789,1.974577 4.875286,1.974576 2.613304,1e-6 4.348204,-1.33814 5.204694,-4.014426 0.4392,-1.414292 0.92782,-2.393418 1.46588,-2.937386 0.53802,-0.543951 1.25723,-0.815932 2.15764,-0.81594 0.74664,8e-6 1.42194,0.266548 2.02588,0.799621 0.6039,0.533089 0.90586,1.213037 0.90588,2.039851 -2e-5,1.980019 -1.12002,3.617338 -3.35999,4.911961 -2.24002,1.294625 -4.95217,1.941938 -8.136456,1.941938 -3.491773,0 -6.593723,-0.826819 -9.305869,-2.480459 -2.712155,-1.653636 -4.06823,-3.862112 -4.068226,-6.625435 -4e-6,-3.459576 2.690185,-6.005306 8.070574,-7.637203 z"
         style="font-style:normal;font-weight:normal;font-size:2050.27807617px;font-family:'Times New Roman';fill:#ffffff;fill-opacity:1;stroke:none;stroke-width:1;stroke-linecap:butt;stroke-linejoin:miter;stroke-miterlimit:4;stroke-dasharray:none;stroke-opacity:0" />
    </g>
  </g>
</svg>
