<?xml version="1.0" encoding="UTF-8" standalone="no"?>
<!-- Created with Inkscape (http://www.inkscape.org/) -->

<svg
   xmlns:dc="http://purl.org/dc/elements/1.1/"
   xmlns:cc="http://creativecommons.org/ns#"
   xmlns:rdf="http://www.w3.org/1999/02/22-rdf-syntax-ns#"
   xmlns:svg="http://www.w3.org/2000/svg"
   xmlns="http://www.w3.org/2000/svg"
   xmlns:xlink="http://www.w3.org/1999/xlink"
   xmlns:sodipodi="http://sodipodi.sourceforge.net/DTD/sodipodi-0.dtd"
   xmlns:inkscape="http://www.inkscape.org/namespaces/inkscape"
   width="290.34393mm"
   height="293.04395mm"
   viewBox="0 0 290.34394 293.04394"
   version="1.1"
   id="svg6371"
   inkscape:export-filename="/home/jacques/Bureau/stickers-34c3.png"
   inkscape:export-xdpi="96"
   inkscape:export-ydpi="96"
   inkscape:version="0.91 r13725"
   sodipodi:docname="stickers-34c3.svg">
  <defs
     id="defs6365">
    <path
       inkscape:export-ydpi="96"
       inkscape:export-xdpi="96"
       inkscape:connector-curvature="0"
       id="path5099"
       d="M -261.07398,197.33632 A 159.33163,159.33163 0 0 1 -90.186284,344.20545 159.33163,159.33163 0 0 1 -237.05542,515.09313 159.33163,159.33163 0 0 1 -407.94311,368.22401 159.33163,159.33163 0 0 1 -261.07398,197.33632 Z"
       style="fill:none;stroke:none;stroke-width:0.23647717" />
    <path
       style="display:none;fill:none;fill-opacity:1;stroke:#000000;stroke-width:0.21262413;stroke-opacity:1"
       d="M 72.528293,-60.733331 A 137.0836,135.82056 68.464071 0 1 249.18835,16.922054 137.0836,135.82056 68.464071 0 1 173.17148,194.29335 137.0836,135.82056 68.464071 0 1 -3.4885773,116.63796 137.0836,135.82056 68.464071 0 1 72.528293,-60.733331 Z"
       id="path8817-6"
       inkscape:connector-curvature="0" />
    <path
       inkscape:connector-curvature="0"
       id="path8787-8"
       d="M 96.200387,-94.865185 A 137.0836,135.82056 68.464071 0 0 20.183512,82.506102 137.0836,135.82056 68.464071 0 0 196.84357,160.16149 137.0836,135.82056 68.464071 0 0 272.86044,-17.209801 137.0836,135.82056 68.464071 0 0 96.200387,-94.865185 Z"
       style="display:none;fill:none;fill-opacity:1;stroke:#000000;stroke-width:0.21262413;stroke-opacity:1" />
  </defs>
  <sodipodi:namedview
     id="base"
     pagecolor="#ffffff"
     bordercolor="#666666"
     borderopacity="1.0"
     inkscape:pageopacity="0.0"
     inkscape:pageshadow="2"
     inkscape:zoom="0.51265242"
     inkscape:cx="0.87446692"
     inkscape:cy="566.60109"
     inkscape:document-units="mm"
     inkscape:current-layer="layer4"
     showgrid="false"
     inkscape:window-width="1920"
     inkscape:window-height="1149"
     inkscape:window-x="0"
     inkscape:window-y="0"
     inkscape:window-maximized="1"
     showguides="true"
     inkscape:guide-bbox="true"
     inkscape:lockguides="true">
    <sodipodi:guide
       position="0,0"
       orientation="0,1097.3629"
       id="guide4500"
       inkscape:locked="true" />
    <sodipodi:guide
       position="290.34394,0"
       orientation="-1107.5677,0"
       id="guide4502"
       inkscape:locked="true" />
    <sodipodi:guide
       position="290.34394,293.04395"
       orientation="0,-1097.3629"
       id="guide4504"
       inkscape:locked="true" />
    <sodipodi:guide
       position="0,293.04395"
       orientation="1107.5677,0"
       id="guide4506"
       inkscape:locked="true" />
    <sodipodi:guide
       position="145.02598,333.40491"
       orientation="1,0"
       id="guide4510"
       inkscape:locked="true" />
    <sodipodi:guide
       position="338.56598,147.0904"
       orientation="0,1"
       id="guide4512"
       inkscape:locked="true" />
  </sodipodi:namedview>
  <metadata
     id="metadata6368">
    <rdf:RDF>
      <cc:Work
         rdf:about="">
        <dc:format>image/svg+xml</dc:format>
        <dc:type
           rdf:resource="http://purl.org/dc/dcmitype/StillImage" />
        <dc:title />
      </cc:Work>
    </rdf:RDF>
  </metadata>
  <g
     inkscape:label="text"
     inkscape:groupmode="layer"
     id="layer1"
     transform="translate(-38.51179,97.807398)"
     style="display:inline">
    <g
       id="g8858"
       inkscape:export-filename="/home/jacques/Bureau/stickers-34c3.pmg"
       inkscape:export-xdpi="96"
       inkscape:export-ydpi="96">
      <path
         inkscape:connector-curvature="0"
         id="path5128"
         d="M 146.52198,-2.0610159 A 145.17197,146.52198 0 0 1 291.69395,144.46096 145.17197,146.52198 0 0 1 146.52198,290.98294 145.17197,146.52198 0 0 1 1.3500088,144.46096 145.17197,146.52198 0 0 1 146.52198,-2.0610159 Z"
         style="fill:#684971;fill-opacity:1;stroke:none;stroke-width:0.22726357"
         transform="translate(37.161781,-95.746382)" />
      <path
         sodipodi:nodetypes="cccccccccccccccccccccsccccccsccc"
         inkscape:connector-curvature="0"
         id="text2175"
         d="M 157.92382,44.128441 C 132.39066,35.139464 119.6241,21.527426 119.62414,3.2922973 c -4e-5,-14.3823933 6.77207,-25.8755823 20.31633,-34.4795813 13.54416,-8.603675 30.361,-12.90559 50.4506,-12.905767 18.27485,1.77e-4 32.79113,2.985838 43.54886,8.956984 10.75746,5.971491 16.13628,13.130657 16.13641,21.477503 -1.3e-4,4.366286 -1.68506,8.1866358 -5.05477,11.461096 -3.36999,3.2747296 -7.2583,4.9120289 -11.66487,4.9118904 -7.25828,1.385e-4 -13.22033,-5.0080618 -17.88616,-15.0246164 -6.48059,-13.86872 -16.20131,-20.80315 -29.16218,-20.803327 -10.23926,1.77e-4 -18.66389,3.33897 -25.27391,10.016409 -6.61015,6.677769 -9.9152,15.9878922 -9.91513,27.9303987 -7e-5,23.5001503 12.24804,35.2501603 36.74435,35.2500683 2.5921,9.2e-5 5.57311,-0.256729 8.94308,-0.770487 5.83233,-0.770395 10.36865,-1.15565 13.60901,-1.155742 7.90608,9.2e-5 11.85917,2.247367 11.8593,6.741809 -1.3e-4,5.008293 -4.01803,7.512405 -12.05372,7.51232 -2.8515,8.5e-5 -7.12863,-0.449372 -12.83135,-1.348369 -4.27722,-0.770403 -7.58227,-1.155658 -9.91514,-1.155735 -25.92203,7.7e-5 -38.883,13.098464 -38.88293,39.295162 -7e-5,12.713167 3.43459,22.954317 10.30398,30.723427 6.86923,7.76915 16.46035,11.65372 28.77336,11.65371 15.42345,1e-5 25.66261,-7.89754 30.7175,-23.69267 2.59208,-8.346982 5.4759,-14.12567 8.65144,-17.336105 3.17532,-3.210336 7.42003,-4.815535 12.73418,-4.815581 4.40658,4.6e-5 8.39208,1.573137 11.9565,4.719271 3.5641,3.146226 5.34625,7.159204 5.3464,12.038965 -1.5e-4,11.68584 -6.61025,21.3491 -19.8303,28.98981 -13.22033,7.64073 -29.2271,11.46109 -48.0204,11.46109 -20.60804,0 -38.91539,-4.87979 -54.92215,-14.63938 -16.00682,-9.75956 -24.01022,-22.79373 -24.01019,-39.102537 -3e-5,-20.41801 15.87716,-35.442611 47.63158,-45.073872 z"
         style="font-style:normal;font-weight:normal;font-size:2050.27807617px;font-family:'Times New Roman';fill:#ffffff;fill-opacity:1;stroke:none;stroke-width:0.2500065px;stroke-linecap:butt;stroke-linejoin:miter;stroke-opacity:1" />
      <path
         inkscape:export-ydpi="96"
         inkscape:export-xdpi="96"
         inkscape:connector-curvature="0"
         id="path6353"
         d="M 174.35526,-72.849982 A 123.76471,122.62439 0 0 1 307.09642,40.18305 123.76471,122.62439 0 0 1 193.01226,171.70117 123.76471,122.62439 0 0 1 60.271094,58.66815 123.76471,122.62439 0 0 1 174.35526,-72.849982 Z"
         style="fill:none;stroke:none;stroke-width:0.23647717" />
      <ellipse
         style="fill:none;fill-opacity:1;stroke:none;stroke-width:1.47774827"
         id="path5644"
         cx="183.68376"
         cy="49.425594"
         rx="141.38664"
         ry="141.38663" />
    </g>
    <path
       style="color:#000000;font-style:normal;font-variant:normal;font-weight:normal;font-stretch:normal;font-size:medium;line-height:normal;font-family:sans-serif;text-indent:0;text-align:start;text-decoration:none;text-decoration-line:none;text-decoration-style:solid;text-decoration-color:#000000;letter-spacing:normal;word-spacing:normal;text-transform:none;writing-mode:lr-tb;direction:ltr;baseline-shift:baseline;text-anchor:start;white-space:normal;clip-rule:nonzero;display:none;overflow:visible;visibility:visible;opacity:1;isolation:auto;mix-blend-mode:normal;color-interpolation:sRGB;color-interpolation-filters:linearRGB;solid-color:#000000;solid-opacity:1;fill:#000000;fill-opacity:1;fill-rule:nonzero;stroke:none;stroke-width:0.22726357;stroke-linecap:butt;stroke-linejoin:miter;stroke-miterlimit:4;stroke-dasharray:none;stroke-dashoffset:0;stroke-opacity:1;color-rendering:auto;image-rendering:auto;shape-rendering:auto;text-rendering:auto;enable-background:accumulate"
       d="m 373.69632,-106.58427 c -80.9827,0 -146.63672,65.0469 -146.63672,145.285158 0,80.238252 65.65402,145.285152 146.63672,145.285152 80.9827,0 146.63476,-65.0469 146.63476,-145.285152 0,-80.238258 -65.65206,-145.285158 -146.63476,-145.285158 z m 0,0.22656 c 80.861,0 146.4082,64.944304 146.4082,145.058598 0,80.114282 -65.5472,145.058592 -146.4082,145.058592 -80.86101,0 -146.4082,-64.94431 -146.4082,-145.058592 0,-80.114294 65.54719,-145.058598 146.4082,-145.058598 z"
       id="ellipse4169"
       inkscape:connector-curvature="0" />
    <path
       inkscape:connector-curvature="0"
       id="path4800"
       d="m -76.282029,-198.83455 c 66.213165,-46.62634 157.344455,-31.24338 203.542179,34.36112 C 173.45786,-98.868952 157.22894,-7.8844713 91.015786,38.741874 24.802626,85.368204 -66.327059,69.984114 -112.52479,4.3796327 -158.7225,-61.224856 -142.49518,-152.20821 -76.282029,-198.83455 Z m 0.13044,0.18523 C -142.26523,-152.09304 -158.46588,-61.253946 -112.33954,4.2491907 -66.213209,69.752314 24.771696,85.112894 90.885336,38.556634 156.999,-7.9996483 173.19963,-98.83874 127.0733,-164.34187 80.946946,-229.845 -10.037914,-245.20559 -76.151589,-198.64932 Z"
       style="color:#000000;font-style:normal;font-variant:normal;font-weight:normal;font-stretch:normal;font-size:medium;line-height:normal;font-family:sans-serif;text-indent:0;text-align:start;text-decoration:none;text-decoration-line:none;text-decoration-style:solid;text-decoration-color:#000000;letter-spacing:normal;word-spacing:normal;text-transform:none;writing-mode:lr-tb;direction:ltr;baseline-shift:baseline;text-anchor:start;white-space:normal;clip-rule:nonzero;display:none;overflow:visible;visibility:visible;opacity:1;isolation:auto;mix-blend-mode:normal;color-interpolation:sRGB;color-interpolation-filters:linearRGB;solid-color:#000000;solid-opacity:1;fill:#000000;fill-opacity:1;fill-rule:nonzero;stroke:none;stroke-width:0.22726357;stroke-linecap:butt;stroke-linejoin:miter;stroke-miterlimit:4;stroke-dasharray:none;stroke-dashoffset:0;stroke-opacity:1;color-rendering:auto;image-rendering:auto;shape-rendering:auto;text-rendering:auto;enable-background:accumulate" />
  </g>
  <g
     inkscape:groupmode="layer"
     id="layer3"
     inkscape:label="overlay"
     style="display:inline">
    <path
       style="fill:none;stroke:none;stroke-width:0.22361389"
       d="M 267.86477,145.95354 A 122.6928,123.83376 0 0 1 145.17197,269.78731 122.6928,123.83376 0 0 1 22.479167,145.95354 122.6928,123.83376 0 0 1 145.17197,22.119777 122.6928,123.83376 0 0 1 267.86477,145.95354 Z"
       id="path4525"
       inkscape:connector-curvature="0" />
    <text
       id="text8819-8"
       style="font-style:normal;font-variant:normal;font-weight:bold;font-stretch:normal;font-size:25.39999962px;line-height:0%;font-family:'DejaVu Sans';-inkscape-font-specification:'DejaVu Sans, Bold';text-align:start;letter-spacing:0px;word-spacing:0px;writing-mode:lr-tb;text-anchor:start;display:inline;fill:#ffffff;fill-opacity:1;stroke:none;stroke-width:1px;stroke-linecap:butt;stroke-linejoin:miter;stroke-opacity:1"
       xml:space="preserve"
       transform="matrix(-0.67382054,-0.55840396,0.55840396,-0.67382054,162.02169,311.87979)"
       sodipodi:linespacing="0%"><textPath
         xlink:href="#path4525"
         id="textPath4553">Exodus Privacy</textPath></text>
  </g>
  <g
     inkscape:groupmode="layer"
     id="layer4"
     inkscape:label="overlay 2"
     style="display:inline">
    <path
       style="fill:none;stroke:none;stroke-width:0.22547613"
       d="M 21.457402,145.95354 A 123.71458,124.86504 0 0 0 145.17196,270.81859 123.71458,124.86504 0 0 0 268.88654,145.95354 123.71458,124.86504 0 0 0 145.17196,21.088496 123.71458,124.86504 0 0 0 21.457402,145.95354"
       id="path4615"
       inkscape:connector-curvature="0" />
    <text
       id="text8798-7"
       style="font-style:normal;font-variant:normal;font-weight:normal;font-stretch:normal;font-size:14.52099991px;line-height:0%;font-family:'DejaVu Sans';-inkscape-font-specification:'DejaVu Sans, Normal';text-align:start;letter-spacing:0px;word-spacing:0px;writing-mode:lr-tb;text-anchor:start;display:inline;fill:#ffffff;fill-opacity:1;stroke:none;stroke-width:1px;stroke-linecap:butt;stroke-linejoin:miter;stroke-opacity:1"
       xml:space="preserve"
       x="-44.10474"
       y="23.453915"
       transform="matrix(1.0032292,-0.19144,0.20208274,0.95039388,-31.363606,44.186736)"
       sodipodi:linespacing="0%"><textPath
         xlink:href="#path4615"
         id="textPath4633">'Cause my privacy is not an adjustment variable!</textPath></text>
  </g>
</svg>
