<?xml version="1.0" encoding="UTF-8" standalone="no"?>
<!-- Created with Inkscape (http://www.inkscape.org/) -->

<svg
   xmlns:dc="http://purl.org/dc/elements/1.1/"
   xmlns:cc="http://creativecommons.org/ns#"
   xmlns:rdf="http://www.w3.org/1999/02/22-rdf-syntax-ns#"
   xmlns:svg="http://www.w3.org/2000/svg"
   xmlns="http://www.w3.org/2000/svg"
   xmlns:xlink="http://www.w3.org/1999/xlink"
   xmlns:sodipodi="http://sodipodi.sourceforge.net/DTD/sodipodi-0.dtd"
   xmlns:inkscape="http://www.inkscape.org/namespaces/inkscape"
   width="290.34393mm"
   height="293.04395mm"
   viewBox="0 0 290.34394 293.04394"
   version="1.1"
   id="svg6371"
   inkscape:export-filename="/home/jacques/Bureau/stickers-url2.png"
   inkscape:export-xdpi="96"
   inkscape:export-ydpi="96"
   inkscape:version="0.91 r13725"
   sodipodi:docname="stickers-url-punch-line.svg">
  <defs
     id="defs6365">
    <path
       inkscape:export-ydpi="96"
       inkscape:export-xdpi="96"
       inkscape:connector-curvature="0"
       id="path5099"
       d="M -261.07398,197.33632 A 159.33163,159.33163 0 0 1 -90.186284,344.20545 159.33163,159.33163 0 0 1 -237.05542,515.09313 159.33163,159.33163 0 0 1 -407.94311,368.22401 159.33163,159.33163 0 0 1 -261.07398,197.33632 Z"
       style="fill:none;stroke:none;stroke-width:0.23647717" />
    <path
       style="display:none;fill:none;fill-opacity:1;stroke:#000000;stroke-width:0.21262413;stroke-opacity:1"
       d="M 72.528293,-60.733331 A 137.0836,135.82056 68.464071 0 1 249.18835,16.922054 137.0836,135.82056 68.464071 0 1 173.17148,194.29335 137.0836,135.82056 68.464071 0 1 -3.4885773,116.63796 137.0836,135.82056 68.464071 0 1 72.528293,-60.733331 Z"
       id="path8817-6"
       inkscape:connector-curvature="0" />
    <path
       inkscape:connector-curvature="0"
       id="path8787-8"
       d="M 96.200387,-94.865185 A 137.0836,135.82056 68.464071 0 0 20.183512,82.506102 137.0836,135.82056 68.464071 0 0 196.84357,160.16149 137.0836,135.82056 68.464071 0 0 272.86044,-17.209801 137.0836,135.82056 68.464071 0 0 96.200387,-94.865185 Z"
       style="display:none;fill:none;fill-opacity:1;stroke:#000000;stroke-width:0.21262413;stroke-opacity:1" />
  </defs>
  <sodipodi:namedview
     id="base"
     pagecolor="#ffffff"
     bordercolor="#666666"
     borderopacity="1.0"
     inkscape:pageopacity="0.0"
     inkscape:pageshadow="2"
     inkscape:zoom="0.39"
     inkscape:cx="451.3392"
     inkscape:cy="881.26958"
     inkscape:document-units="mm"
     inkscape:current-layer="layer4"
     showgrid="false"
     inkscape:window-width="1920"
     inkscape:window-height="1149"
     inkscape:window-x="0"
     inkscape:window-y="0"
     inkscape:window-maximized="1"
     showguides="true"
     inkscape:guide-bbox="true"
     inkscape:lockguides="true">
    <sodipodi:guide
       position="0,0"
       orientation="0,1097.3629"
       id="guide4500"
       inkscape:locked="true" />
    <sodipodi:guide
       position="290.34394,0"
       orientation="-1107.5677,0"
       id="guide4502"
       inkscape:locked="true" />
    <sodipodi:guide
       position="290.34394,293.04395"
       orientation="0,-1097.3629"
       id="guide4504"
       inkscape:locked="true" />
    <sodipodi:guide
       position="0,293.04395"
       orientation="1107.5677,0"
       id="guide4506"
       inkscape:locked="true" />
    <sodipodi:guide
       position="145.02598,333.40491"
       orientation="1,0"
       id="guide4510"
       inkscape:locked="true" />
    <sodipodi:guide
       position="338.56598,147.0904"
       orientation="0,1"
       id="guide4512"
       inkscape:locked="true" />
  </sodipodi:namedview>
  <metadata
     id="metadata6368">
    <rdf:RDF>
      <cc:Work
         rdf:about="">
        <dc:format>image/svg+xml</dc:format>
        <dc:type
           rdf:resource="http://purl.org/dc/dcmitype/StillImage" />
        <dc:title></dc:title>
      </cc:Work>
    </rdf:RDF>
  </metadata>
  <g
     inkscape:groupmode="layer"
     id="layer4"
     inkscape:label="fond"
     style="display:inline;opacity:1">
    <path
       style="fill:none;stroke:none;stroke-width:0.22547613"
       d="M 21.457402,145.95354 A 123.71458,124.86504 0 0 0 145.17196,270.81859 123.71458,124.86504 0 0 0 268.88654,145.95354 123.71458,124.86504 0 0 0 145.17196,21.088496 123.71458,124.86504 0 0 0 21.457402,145.95354"
       id="path4615"
       inkscape:connector-curvature="0" />
    <path
       style="display:inline;fill:#684971;fill-opacity:1;stroke:none;stroke-width:0.22726357"
       d="M 183.68376,-97.807398 A 145.17197,146.52198 0 0 1 328.85573,48.714578 145.17197,146.52198 0 0 1 183.68376,195.23656 145.17197,146.52198 0 0 1 38.51179,48.714578 145.17197,146.52198 0 0 1 183.68376,-97.807398 Z"
       id="path5128"
       inkscape:connector-curvature="0"
       transform="translate(-38.511791,97.807397)" />
  </g>
  <g
     inkscape:groupmode="layer"
     id="layer3"
     inkscape:label="Logo"
     style="display:inline">
    <path
       style="fill:none;stroke:none;stroke-width:0.22361389"
       d="M 267.86477,145.95354 A 122.6928,123.83376 0 0 1 145.17197,269.78731 122.6928,123.83376 0 0 1 22.479167,145.95354 122.6928,123.83376 0 0 1 145.17197,22.119777 122.6928,123.83376 0 0 1 267.86477,145.95354 Z"
       id="path4525"
       inkscape:connector-curvature="0" />
    <path
       transform="translate(-38.511791,97.807397)"
       style="font-style:normal;font-weight:normal;font-size:2050.27807617px;font-family:'Times New Roman';display:inline;fill:#ffffff;fill-opacity:1;stroke:none;stroke-width:0.2500065px;stroke-linecap:butt;stroke-linejoin:miter;stroke-opacity:1"
       d="M 157.92382,44.128441 C 132.39066,35.139464 119.6241,21.527426 119.62414,3.2922973 c -4e-5,-14.3823933 6.77207,-25.8755823 20.31633,-34.4795813 13.54416,-8.603675 30.361,-12.90559 50.4506,-12.905767 18.27485,1.77e-4 32.79113,2.985838 43.54886,8.956984 10.75746,5.971491 16.13628,13.130657 16.13641,21.477503 -1.3e-4,4.366286 -1.68506,8.1866358 -5.05477,11.461096 -3.36999,3.2747296 -7.2583,4.9120289 -11.66487,4.9118904 -7.25828,1.385e-4 -13.22033,-5.0080618 -17.88616,-15.0246164 -6.48059,-13.86872 -16.20131,-20.80315 -29.16218,-20.803327 -10.23926,1.77e-4 -18.66389,3.33897 -25.27391,10.016409 -6.61015,6.677769 -9.9152,15.9878922 -9.91513,27.9303987 -7e-5,23.5001503 12.24804,35.2501603 36.74435,35.2500683 2.5921,9.2e-5 5.57311,-0.256729 8.94308,-0.770487 5.83233,-0.770395 10.36865,-1.15565 13.60901,-1.155742 7.90608,9.2e-5 11.85917,2.247367 11.8593,6.741809 -1.3e-4,5.008293 -4.01803,7.512405 -12.05372,7.51232 -2.8515,8.5e-5 -7.12863,-0.449372 -12.83135,-1.348369 -4.27722,-0.770403 -7.58227,-1.155658 -9.91514,-1.155735 -25.92203,7.7e-5 -38.883,13.098464 -38.88293,39.295162 -7e-5,12.713167 3.43459,22.954317 10.30398,30.723427 6.86923,7.76915 16.46035,11.65372 28.77336,11.65371 15.42345,1e-5 25.66261,-7.89754 30.7175,-23.69267 2.59208,-8.346982 5.4759,-14.12567 8.65144,-17.336105 3.17532,-3.210336 7.42003,-4.815535 12.73418,-4.815581 4.40658,4.6e-5 8.39208,1.573137 11.9565,4.719271 3.5641,3.146226 5.34625,7.159204 5.3464,12.038965 -1.5e-4,11.68584 -6.61025,21.3491 -19.8303,28.98981 -13.22033,7.64073 -29.2271,11.46109 -48.0204,11.46109 -20.60804,0 -38.91539,-4.87979 -54.92215,-14.63938 -16.00682,-9.75956 -24.01022,-22.79373 -24.01019,-39.102537 -3e-5,-20.41801 15.87716,-35.442611 47.63158,-45.073872 z"
       id="text2175"
       inkscape:connector-curvature="0"
       sodipodi:nodetypes="cccccccccccccccccccccsccccccsccc" />
  </g>
  <g
     inkscape:label="text"
     inkscape:groupmode="layer"
     id="layer1"
     transform="translate(-38.51179,97.807398)"
     style="display:inline">
    <path
       style="fill:none;stroke:none;stroke-width:0.23647717"
       d="M 174.35526,-72.849982 A 123.76471,122.62439 0 0 1 307.09642,40.18305 123.76471,122.62439 0 0 1 193.01226,171.70117 123.76471,122.62439 0 0 1 60.271094,58.66815 123.76471,122.62439 0 0 1 174.35526,-72.849982 Z"
       id="path6353"
       inkscape:connector-curvature="0"
       inkscape:export-xdpi="96"
       inkscape:export-ydpi="96" />
    <ellipse
       ry="141.38663"
       rx="141.38664"
       cy="49.425594"
       cx="183.68376"
       id="path5644"
       style="fill:none;fill-opacity:1;stroke:none;stroke-width:1.47774827" />
    <path
       style="color:#000000;font-style:normal;font-variant:normal;font-weight:normal;font-stretch:normal;font-size:medium;line-height:normal;font-family:sans-serif;text-indent:0;text-align:start;text-decoration:none;text-decoration-line:none;text-decoration-style:solid;text-decoration-color:#000000;letter-spacing:normal;word-spacing:normal;text-transform:none;direction:ltr;writing-mode:lr-tb;baseline-shift:baseline;text-anchor:start;white-space:normal;clip-rule:nonzero;display:none;overflow:visible;visibility:visible;opacity:1;isolation:auto;mix-blend-mode:normal;color-interpolation:sRGB;color-interpolation-filters:linearRGB;solid-color:#000000;solid-opacity:1;fill:#000000;fill-opacity:1;fill-rule:nonzero;stroke:none;stroke-width:0.22726357;stroke-linecap:butt;stroke-linejoin:miter;stroke-miterlimit:4;stroke-dasharray:none;stroke-dashoffset:0;stroke-opacity:1;color-rendering:auto;image-rendering:auto;shape-rendering:auto;text-rendering:auto;enable-background:accumulate"
       d="m 373.69632,-106.58427 c -80.9827,0 -146.63672,65.0469 -146.63672,145.285158 0,80.238252 65.65402,145.285152 146.63672,145.285152 80.9827,0 146.63476,-65.0469 146.63476,-145.285152 0,-80.238258 -65.65206,-145.285158 -146.63476,-145.285158 z m 0,0.22656 c 80.861,0 146.4082,64.944304 146.4082,145.058598 0,80.114282 -65.5472,145.058592 -146.4082,145.058592 -80.86101,0 -146.4082,-64.94431 -146.4082,-145.058592 0,-80.114294 65.54719,-145.058598 146.4082,-145.058598 z"
       id="ellipse4169"
       inkscape:connector-curvature="0" />
    <path
       inkscape:connector-curvature="0"
       id="path4800"
       d="m -76.282029,-198.83455 c 66.213165,-46.62634 157.344455,-31.24338 203.542179,34.36112 C 173.45786,-98.868952 157.22894,-7.8844713 91.015786,38.741874 24.802626,85.368204 -66.327059,69.984114 -112.52479,4.3796327 -158.7225,-61.224856 -142.49518,-152.20821 -76.282029,-198.83455 Z m 0.13044,0.18523 C -142.26523,-152.09304 -158.46588,-61.253946 -112.33954,4.2491907 -66.213209,69.752314 24.771696,85.112894 90.885336,38.556634 156.999,-7.9996483 173.19963,-98.83874 127.0733,-164.34187 80.946946,-229.845 -10.037914,-245.20559 -76.151589,-198.64932 Z"
       style="color:#000000;font-style:normal;font-variant:normal;font-weight:normal;font-stretch:normal;font-size:medium;line-height:normal;font-family:sans-serif;text-indent:0;text-align:start;text-decoration:none;text-decoration-line:none;text-decoration-style:solid;text-decoration-color:#000000;letter-spacing:normal;word-spacing:normal;text-transform:none;direction:ltr;writing-mode:lr-tb;baseline-shift:baseline;text-anchor:start;white-space:normal;clip-rule:nonzero;display:none;overflow:visible;visibility:visible;opacity:1;isolation:auto;mix-blend-mode:normal;color-interpolation:sRGB;color-interpolation-filters:linearRGB;solid-color:#000000;solid-opacity:1;fill:#000000;fill-opacity:1;fill-rule:nonzero;stroke:none;stroke-width:0.22726357;stroke-linecap:butt;stroke-linejoin:miter;stroke-miterlimit:4;stroke-dasharray:none;stroke-dashoffset:0;stroke-opacity:1;color-rendering:auto;image-rendering:auto;shape-rendering:auto;text-rendering:auto;enable-background:accumulate" />
    <g
       transform="matrix(0.77567184,-0.66441805,0.64741448,0.72452772,-22.190962,51.666143)"
       style="font-style:normal;font-variant:normal;font-weight:normal;font-stretch:normal;font-size:14.52099991px;line-height:0%;font-family:'DejaVu Sans';-inkscape-font-specification:'DejaVu Sans, Normal';text-align:start;letter-spacing:0px;word-spacing:0px;writing-mode:lr-tb;text-anchor:start;display:inline;fill:#ffffff;fill-opacity:1;stroke:none;stroke-width:1px;stroke-linecap:butt;stroke-linejoin:miter;stroke-opacity:1"
       id="text8798-7">
      <path
         d="m 26.4509,153.74766 -4.789964,0.17236 -0.04692,-1.30378 4.74745,-0.17083 q 1.126633,-0.0405 1.670599,-0.5 0.543965,-0.45946 0.512347,-1.3381 -0.03799,-1.05577 -0.733065,-1.64092 -0.695074,-0.58515 -1.857137,-0.54334 l -4.485277,0.1614 -0.04717,-1.31086 11.025421,-0.39675 0.04717,1.31087 -4.322305,0.15553 q 0.732489,0.44191 1.109469,1.05979 0.377235,0.62497 0.407068,1.454 0.04921,1.36755 -0.775836,2.09964 -0.817961,0.73183 -2.461854,0.79099 z"
         id="path3426"
         inkscape:connector-curvature="0" />
      <path
         d="m 32.158323,156.85017 -2.244643,0.21299 0.253844,2.67522 -1.009383,0.0958 -0.253845,-2.67522 -4.291645,0.40722 q -0.967031,0.0918 -1.217536,0.37905 -0.249835,0.29435 -0.172811,1.10609 l 0.126587,1.33408 -1.087029,0.10315 -0.126587,-1.33409 q -0.142662,-1.50348 0.360718,-2.12814 0.510439,-0.62533 1.99275,-0.76599 l 4.291645,-0.40722 -0.09042,-0.95291 1.009384,-0.0958 0.09042,0.95291 2.244643,-0.21298 0.123908,1.30584 z"
         id="path3428"
         inkscape:connector-curvature="0" />
      <path
         d="m 32.76216,162.05468 -2.232736,0.31413 0.37439,2.66103 -1.004029,0.14126 -0.37439,-2.66103 -4.268878,0.6006 q -0.961902,0.13534 -1.199178,0.43364 -0.236288,0.30533 -0.122688,1.11277 l 0.186701,1.327 -1.081262,0.15213 -0.186701,-1.327 q -0.210408,-1.49551 0.264251,-2.14227 0.48168,-0.64774 1.956128,-0.85519 l 4.268878,-0.6006 -0.133357,-0.94786 1.004029,-0.14126 0.133357,0.94786 2.232736,-0.31413 0.182749,1.29892 z"
         id="path3430"
         inkscape:connector-curvature="0" />
      <path
         d="m 24.726254,168.84096 -4.128362,0.83348 -0.259585,-1.28577 10.744861,-2.16929 0.259585,1.28577 -1.181518,0.23853 q 0.776394,0.26279 1.233477,0.80705 0.465436,0.54981 0.638025,1.40467 0.286245,1.41782 -0.66147,2.52779 -0.946312,1.11693 -2.781139,1.48737 -1.834828,0.37043 -3.140349,-0.29187 -1.304119,-0.65535 -1.590364,-2.07317 -0.172589,-0.85487 0.03614,-1.54078 0.217077,-0.68036 0.830704,-1.22378 z m 3.59587,3.80213 q 1.410871,-0.28485 2.092267,-1.03002 0.68975,-0.73962 0.484888,-1.75434 -0.204862,-1.01471 -1.128939,-1.43576 -0.915725,-0.41549 -2.326596,-0.13065 -1.410871,0.28484 -2.10062,1.02447 -0.681397,0.74517 -0.476535,1.75989 0.204862,1.01471 1.120586,1.43021 0.924078,0.42104 2.334949,0.1362 z"
         id="path3432"
         inkscape:connector-curvature="0" />
      <path
         d="m 34.017807,179.70567 -1.190208,0.32476 q 0.128032,-0.6082 0.10806,-1.22011 -0.01997,-0.61191 -0.187948,-1.22754 -0.255696,-0.93711 -0.671769,-1.33071 -0.414207,-0.38675 -0.98879,-0.22997 -0.437778,0.11945 -0.599414,0.52368 -0.154797,0.40237 -0.104299,1.47632 l 0.02182,0.45706 q 0.07852,1.41909 -0.295134,2.1237 -0.36495,0.70959 -1.302067,0.96529 -1.067083,0.29116 -1.920982,-0.3872 -0.852032,-0.67151 -1.255174,-2.14901 -0.167976,-0.61562 -0.227758,-1.31956 -0.06476,-0.69524 -0.02692,-1.49931 l 1.299652,-0.35462 q -0.172162,0.79663 -0.172076,1.52421 0.0069,0.72571 0.187967,1.38922 0.242632,0.88924 0.674252,1.28593 0.43846,0.39483 0.992523,0.24366 0.51302,-0.13998 0.691445,-0.56349 0.180291,-0.41667 0.114227,-1.65542 l -0.01685,-0.46577 q -0.0729,-1.23688 0.29143,-1.89485 0.371174,-0.65984 1.26041,-0.90248 1.080763,-0.29489 1.878064,0.31071 0.7973,0.6056 1.181778,2.0147 0.190373,0.69771 0.255744,1.34133 0.06537,0.64362 0.002,1.21947 z"
         id="path3434"
         inkscape:connector-curvature="0" />
      <path
         d="m 29.156197,183.88432 0.465473,1.42181 -1.711557,0.56033 -0.465473,-1.4218 1.711557,-0.56034 z m 5.424423,-1.77585 0.465473,1.4218 -1.711557,0.56033 -0.465473,-1.4218 1.711557,-0.56033 z"
         id="path3436"
         inkscape:connector-curvature="0" />
      <path
         d="m 39.649166,187.2603 0.419802,1.12989 -12.470007,0.6999 -0.419802,-1.12989 12.470007,-0.6999 z"
         id="path3438"
         inkscape:connector-curvature="0" />
      <path
         d="m 41.340463,191.41943 0.463923,1.1125 -12.432823,1.18989 -0.463923,-1.1125 12.432823,-1.18989 z"
         id="path3440"
         inkscape:connector-curvature="0" />
      <path
         d="m 39.409502,202.12516 -0.574736,0.27729 -2.606503,-5.40252 q -1.17636,0.66202 -1.500696,1.62148 -0.314869,0.96277 0.248949,2.1314 0.326583,0.67691 0.797634,1.22902 0.474132,0.55849 1.108137,1.0241 l -1.111156,0.53609 q -0.573226,-0.50281 -1.034139,-1.09917 -0.460912,-0.59635 -0.790576,-1.27965 -0.8257,-1.71144 -0.313204,-3.19466 0.515577,-1.47684 2.214241,-2.29638 1.756137,-0.84727 3.24026,-0.39819 1.49359,0.45239 2.269995,2.06165 0.696299,1.44323 0.167558,2.72961 -0.519275,1.28969 -2.115764,2.05993 z m -0.222058,-1.34139 q 0.958118,-0.47799 1.277133,-1.28532 0.322096,-0.80093 -0.09692,-1.66942 -0.47447,-0.98344 -1.316579,-1.30929 -0.839027,-0.31946 -1.891142,0.0779 l 2.027504,4.1861 z"
         id="path3442"
         inkscape:connector-curvature="0" />
      <path
         d="m 46.616024,207.46157 -4.778451,-0.5871 -2.051945,4.6405 -0.760266,-1.33764 1.570123,-3.55111 -3.854425,-0.46799 -0.760266,-1.33764 5.136291,0.62838 1.897309,-4.32426 0.760266,1.33764 -1.41899,3.2287 3.500088,0.43287 0.760266,1.33765 z"
         id="path3444"
         inkscape:connector-curvature="0" />
      <path
         d="m 48.100307,211.37052 q -0.579324,-0.87496 -1.601739,-0.92932 -1.016504,-0.0583 -2.204798,0.72851 -1.188293,0.78678 -1.541354,1.74336 -0.343236,0.95858 0.240003,1.83945 0.57541,0.86905 1.597825,0.92341 1.022416,0.0544 2.204797,-0.72851 1.17647,-0.77896 1.525617,-1.74145 0.355059,-0.9664 -0.220351,-1.83545 z m 0.922258,-0.61064 q 0.939444,1.41886 0.553453,2.83943 -0.385991,1.42057 -2.017678,2.50093 -1.625774,1.07645 -3.09021,0.88107 -1.458524,-0.19929 -2.397969,-1.61815 -0.943359,-1.42477 -0.557367,-2.84534 0.395817,-1.41857 2.021592,-2.49502 1.631687,-1.08036 3.086296,-0.88698 1.458524,0.19929 2.401883,1.62406 z"
         id="path3446"
         inkscape:connector-curvature="0" />
      <path
         d="m 54.046384,220.05795 3.402043,-2.62451 0.796883,1.03296 -8.735278,6.73886 -0.796883,-1.03296 0.94314,-0.72759 q -0.812584,0.10748 -1.473116,-0.17995 -0.650586,-0.28614 -1.187616,-0.98227 -0.87917,-1.13963 -0.524067,-2.55981 0.359435,-1.41458 1.841513,-2.55793 1.482078,-1.14336 2.941558,-1.13199 1.46381,0.017 2.34298,1.15661 0.53703,0.69613 0.643065,1.40237 0.11598,0.70752 -0.194222,1.46621 z m -4.910513,-1.82655 q -1.139628,0.87917 -1.43138,1.8475 -0.281808,0.96963 0.350501,1.78926 0.632309,0.81964 1.641706,0.79315 1.015011,-0.0308 2.154639,-0.90998 1.139628,-0.87917 1.421436,-1.84879 0.287422,-0.97395 -0.344888,-1.79359 -0.632309,-0.81963 -1.64732,-0.78882 -1.005065,0.0321 -2.144694,0.91127 z"
         id="path3448"
         inkscape:connector-curvature="0" />
      <path
         d="m 53.475466,225.07993 3.580036,-3.20826 0.870679,0.97158 -3.543075,3.17513 q -0.839566,0.75238 -0.968608,1.45832 -0.123762,0.7012 0.463,1.35596 0.70506,0.78676 1.613635,0.79133 0.913308,0.01 1.779275,-0.76619 l 3.352984,-3.00479 0.870679,0.97157 -5.913925,5.29979 -0.870678,-0.97158 0.908209,-0.81389 q -0.85563,0.12888 -1.540788,-0.10447 -0.675146,-0.2328 -1.228784,-0.85059 -0.913266,-1.0191 -0.752826,-2.11496 0.16044,-1.09587 1.380187,-2.18895 z m 5.913497,-0.89125 0,0 z"
         id="path3450"
         inkscape:connector-curvature="0" />
      <path
         d="m 66.477012,232.07417 -0.861501,0.88311 q -0.197829,-0.5892 -0.525132,-1.10661 -0.327304,-0.5174 -0.784082,-0.96301 -0.695318,-0.6783 -1.253464,-0.80677 -0.55307,-0.12352 -0.968967,0.30281 -0.316875,0.32482 -0.251377,0.75521 0.07045,0.42532 0.658207,1.32558 l 0.250429,0.38298 q 0.786814,1.18359 0.82175,1.98038 0.04496,0.79667 -0.633345,1.49199 -0.772381,0.79175 -1.852276,0.63966 -1.074819,-0.14714 -2.171087,-1.21659 -0.456779,-0.4456 -0.865039,-1.02217 -0.408136,-0.56655 -0.78298,-1.27891 l 0.940721,-0.96431 q 0.25527,0.77401 0.624045,1.40121 0.373727,0.62212 0.866032,1.10239 0.659791,0.64365 1.232915,0.76691 0.578074,0.1182 0.979118,-0.29291 0.371337,-0.38064 0.310542,-0.83617 -0.05572,-0.45057 -0.740406,-1.485 l -0.250553,-0.393 q -0.689637,-1.02936 -0.708975,-1.78123 -0.01439,-0.75693 0.629263,-1.41672 0.782283,-0.8019 1.776518,-0.68385 0.994235,0.11805 2.03975,1.13799 0.517683,0.50502 0.900194,1.02675 0.382511,0.52174 0.6197,1.05028 z"
         id="path3452"
         inkscape:connector-curvature="0" />
      <path
         d="m 65.477767,235.41332 2.868886,2.52483 -0.768225,0.87291 -2.868886,-2.52483 0.768225,-0.87291 z"
         id="path3454"
         inkscape:connector-curvature="0" />
      <path
         d="m 68.642857,242.5615 -2.594332,3.31775 -1.033308,-0.808 6.752253,-8.6351 1.033308,0.808 -0.742486,0.94953 q 0.760712,-0.30523 1.461874,-0.18898 0.711115,0.11502 1.398125,0.65223 1.139431,0.89099 1.141237,2.35051 0.0074,1.46389 -1.145645,2.93845 -1.153037,1.47456 -2.575519,1.82035 -1.416897,0.35016 -2.556327,-0.54082 -0.68701,-0.53721 -0.974472,-1.19403 -0.277508,-0.65803 -0.164708,-1.46989 z m 5.204206,0.55018 q 0.886616,-1.13384 0.919708,-2.14304 0.04304,-1.01042 -0.77243,-1.64809 -0.815475,-0.63766 -1.791289,-0.35663 -0.965862,0.27982 -1.852477,1.41367 -0.886616,1.13384 -0.929661,2.14426 -0.03309,1.0092 0.782382,1.64687 0.815475,0.63766 1.781337,0.35784 0.975815,-0.28103 1.86243,-1.41488 z"
         id="path3456"
         inkscape:connector-curvature="0" />
      <path
         d="m 81.856946,245.36361 q -0.108788,-0.22971 -0.292805,-0.42511 -0.174158,-0.19721 -0.431212,-0.37399 -0.911374,-0.62677 -1.811923,-0.36836 -0.890689,0.25658 -1.654058,1.36659 l -2.370462,3.44687 -1.080796,-0.74328 4.49986,-6.5432 1.080796,0.74328 -0.699085,1.01653 q 0.748653,-0.36287 1.488841,-0.27549 0.744206,0.0815 1.521211,0.6159 0.111001,0.0763 0.233317,0.18627 0.126334,0.1041 0.269825,0.2458 l -0.753509,1.10819 z"
         id="path3458"
         inkscape:connector-curvature="0" />
      <path
         d="m 83.460885,244.90336 1.103966,0.6952 -4.231625,6.71979 -1.103966,-0.6952 4.231625,-6.71979 z m 1.647311,-2.61592 1.103966,0.6952 -0.880329,1.39796 -1.103966,-0.6952 0.880329,-1.39796 z"
         id="path3460"
         inkscape:connector-curvature="0" />
      <path
         d="m 85.710188,246.37506 1.206108,0.67596 -1.093685,7.02733 5.423302,-4.60079 1.206108,0.67596 -6.480231,5.47147 -1.546292,-0.86662 1.28469,-8.38331 z"
         id="path3462"
         inkscape:connector-curvature="0" />
      <path
         d="m 95.150563,255.80546 q -1.430799,-0.67293 -2.136485,-0.60522 -0.705686,0.0677 -1.076853,0.85689 -0.295726,0.62878 -0.06011,1.19405 0.245045,0.56186 0.957236,0.89682 0.981669,0.46169 1.897856,0.0464 0.92562,-0.41872 1.468791,-1.57363 l 0.123723,-0.26306 -1.174153,-0.55222 z m 2.58406,0.61984 -1.928256,4.09991 -1.180569,-0.55524 0.512995,-1.09075 q -0.712014,0.46434 -1.462994,0.49508 -0.747962,0.0243 -1.620557,-0.38608 -1.103575,-0.51903 -1.46833,-1.44278 -0.355321,-0.92714 0.133533,-1.96656 0.570329,-1.21265 1.668454,-1.44838 1.10454,-0.23271 2.71499,0.52471 l 1.655363,0.77855 0.05432,-0.11549 q 0.383237,-0.81485 0.0525,-1.51104 -0.321307,-0.6996 -1.290143,-1.15526 -0.615949,-0.28969 -1.269223,-0.41672 -0.653273,-0.12703 -1.331039,-0.0854 l 0.512995,-1.09074 q 0.765716,0.0545 1.432584,0.21932 0.669885,0.15835 1.247337,0.42993 1.559122,0.73328 1.948838,1.90383 0.389717,1.17055 -0.382793,2.81308 z"
         id="path3464"
         inkscape:connector-curvature="0" />
      <path
         d="m 106.38306,256.52367 -0.44163,1.13677 q -0.4051,-0.48447 -0.8733,-0.8261 -0.45902,-0.34568 -0.98775,-0.55108 -1.18303,-0.45961 -2.13003,0.0396 -0.94444,0.49263 -1.4708,1.8475 -0.526364,1.35486 -0.16477,2.36249 0.36416,1.00103 1.54719,1.46063 0.52873,0.20541 1.09816,0.26689 0.5786,0.0574 1.20452,-0.0265 l -0.43649,1.12355 q -0.60134,0.0402 -1.19611,-0.0539 -0.58816,-0.0916 -1.20281,-0.33036 -1.672102,-0.64961 -2.248608,-2.08303 -0.576506,-1.43342 0.116748,-3.21788 0.703525,-1.81089 2.098,-2.46338 1.40109,-0.64992 3.13268,0.0228 0.56177,0.21824 1.05089,0.54518 0.49169,0.32033 0.90411,0.74679 z"
         id="path3466"
         inkscape:connector-curvature="0" />
      <path
         d="m 108.70223,266.08512 q -0.96052,1.18075 -1.5924,1.43192 -0.63188,0.25117 -1.46889,-0.0179 l -0.99226,-0.319 0.33419,-1.03951 0.72901,0.23436 q 0.513,0.16493 0.87463,0.0131 0.36163,-0.15186 0.99667,-0.9457 l 0.40504,-0.49539 -0.66638,-8.42164 1.31627,0.42317 0.46155,6.67259 4.26351,-5.15355 1.31626,0.42317 -5.9772,7.19443 z"
         id="path3468"
         inkscape:connector-curvature="0" />
      <path
         d="m 112.66766,264.59825 1.4437,0.39231 -0.47226,1.73792 -1.4437,-0.39231 0.47226,-1.73792 z"
         id="path3470"
         inkscape:connector-curvature="0" />
      <path
         d="m 124.02225,264.69639 -0.13286,0.62415 -5.86696,-1.24894 q -0.19728,1.33536 0.36246,2.17943 0.56814,0.83862 1.83724,1.10878 0.7351,0.15648 1.46004,0.12233 0.73188,-0.0327 1.48827,-0.24862 l -0.25687,1.20668 q -0.74856,0.14511 -1.50227,0.14415 -0.75372,-9.7e-4 -1.49576,-0.15893 -1.85856,-0.39564 -2.71705,-1.70927 -0.85155,-1.31215 -0.45886,-3.15684 0.40598,-1.90711 1.67003,-2.80515 1.27247,-0.90349 3.02007,-0.53147 1.5673,0.33364 2.26024,1.53953 0.70135,1.20044 0.33228,2.93417 z m -1.19631,-0.64612 q 0.20905,-1.05013 -0.23369,-1.7968 -0.4358,-0.7452 -1.37895,-0.94598 -1.06798,-0.22734 -1.84136,0.2387 -0.76645,0.46752 -1.0968,1.54258 l 4.5508,0.9615 z"
         id="path3472"
         inkscape:connector-curvature="0" />
      <path
         d="m 125.53267,266.12688 0.64955,-4.76316 1.29265,0.17628 -0.64284,4.71398 q -0.15233,1.11703 0.2066,1.73845 0.35988,0.6144 1.23102,0.73319 1.04677,0.14275 1.74196,-0.44226 0.70222,-0.58406 0.85934,-1.73621 l 0.60835,-4.46107 1.29266,0.17628 -1.07301,7.86835 -1.29265,-0.17628 0.16478,-1.20836 q -0.56842,0.6524 -1.24157,0.9184 -0.66517,0.25993 -1.48713,0.14784 -1.35589,-0.1849 -1.94345,-1.12374 -0.58757,-0.93884 -0.36626,-2.56169 z m 3.92813,-4.50927 0,0 z"
         id="path3474"
         inkscape:connector-curvature="0" />
      <path
         d="m 134.7193,268.57411 1.49137,0.11845 -0.14259,1.79529 -1.49136,-0.11845 0.14258,-1.79529 z"
         id="path3476"
         inkscape:connector-curvature="0" />
      <path
         d="m 142.25479,263.756 q -1.04905,-0.0261 -1.67906,0.781 -0.62984,0.79999 -0.66525,2.2247 -0.0354,1.42472 0.54665,2.26192 0.58932,0.83029 1.64545,0.85653 1.04196,0.0259 1.67197,-0.78117 0.63002,-0.80708 0.66525,-2.22471 0.0351,-1.41054 -0.55409,-2.24791 -0.58896,-0.84446 -1.63092,-0.87036 z m 0.0275,-1.10575 q 1.70116,0.0423 2.64475,1.17216 0.94359,1.12989 0.89497,3.08622 -0.0485,1.94924 -1.04718,3.03794 -0.99856,1.08162 -2.69971,1.03933 -1.70825,-0.0425 -2.65184,-1.17234 -0.93633,-1.13679 -0.88788,-3.08603 0.0486,-1.95633 1.04009,-3.03812 0.99856,-1.08162 2.7068,-1.03916 z"
         id="path3478"
         inkscape:connector-curvature="0" />
      <path
         d="m 152.25255,263.92542 q -0.22397,-0.12015 -0.48808,-0.168 -0.25725,-0.0552 -0.56905,-0.0447 -1.10547,0.0373 -1.67635,0.78014 -0.56403,0.73554 -0.51864,2.08194 l 0.14095,4.18092 -1.31097,0.0442 -0.26756,-7.93667 1.31096,-0.0442 0.0416,1.23301 q 0.38664,-0.73666 1.03396,-1.1061 0.64708,-0.37653 1.58956,-0.40831 0.13464,-0.005 0.29834,0.0112 0.16346,0.009 0.36308,0.0374 l 0.0522,1.33907 z"
         id="path3480"
         inkscape:connector-curvature="0" />
      <path
         d="m 158.42684,266.03992 q -0.13325,-1.41179 -0.79243,-2.13298 -0.65213,-0.72185 -1.70391,-0.62258 -1.04473,0.0986 -1.55733,0.93039 -0.50555,0.83112 -0.3723,2.24291 0.13258,1.40473 0.7847,2.12659 0.65918,0.72118 1.70391,0.62258 1.05178,-0.0993 1.55733,-0.93039 0.51261,-0.83178 0.38003,-2.23652 z m 1.58799,2.941 q 0.19055,2.01887 -0.61333,3.08468 -0.80322,1.07286 -2.65266,1.24742 -0.68472,0.0646 -1.30179,0.016 -0.61639,-0.0415 -1.20816,-0.19933 l -0.11925,-1.26356 q 0.60109,0.25663 1.17273,0.35224 0.57165,0.0956 1.15049,0.041 1.27767,-0.12059 1.84968,-0.85115 0.57268,-0.72351 0.44543,-2.07177 l -0.0606,-0.64237 q -0.3364,0.73682 -0.932,1.142 -0.5956,0.40519 -1.47091,0.4878 -1.45415,0.13725 -2.44818,-0.88706 -0.99403,-1.02431 -1.16659,-2.85258 -0.17322,-1.83533 0.61161,-3.02754 0.78483,-1.1922 2.23898,-1.32945 0.87531,-0.0826 1.5362,0.20398 0.66089,0.2866 1.12921,0.94746 l -0.11326,-1.20003 1.29885,-0.12259 0.65358,6.92484 z"
         id="path3482"
         inkscape:connector-curvature="0" />
    </g>
    <text
       id="text8819-8"
       style="font-style:normal;font-variant:normal;font-weight:bold;font-stretch:normal;font-size:12.89970016px;line-height:0%;font-family:'DejaVu Sans';-inkscape-font-specification:'DejaVu Sans, Bold';text-align:start;letter-spacing:0px;word-spacing:0px;writing-mode:lr-tb;text-anchor:start;display:inline;fill:#ffffff;fill-opacity:1;stroke:none;stroke-width:1px;stroke-linecap:butt;stroke-linejoin:miter;stroke-opacity:1"
       xml:space="preserve"
       transform="matrix(-0.98523059,-0.07916465,0.08751669,-0.89120696,313.95063,173.63877)"
       sodipodi:linespacing="0%"><textPath
         xlink:href="#path4525"
         id="textPath4553">'Cause my privacy is not an adjustement variable!</textPath></text>
  </g>
</svg>
